<svg width="183" height="183" viewBox="0 0 183 183" fill="none" xmlns="http://www.w3.org/2000/svg">
<rect width="183" height="183" fill="#172C47"/>
<path fill-rule="evenodd" clip-rule="evenodd" d="M5.92672 89.4684H4.81497L0.00801468 100.098H1.23175L2.47948 97.3067H8.22222L9.46195 100.098H10.7417L5.93472 89.4684H5.92672ZM7.75032 96.2509H2.94338L5.35085 90.8681L7.75032 96.2509ZM25.9943 94.8033C25.9943 94.0594 25.8584 93.3636 25.5864 92.7237C25.3145 92.0838 24.9306 91.524 24.4347 91.0521C23.9388 90.5802 23.3469 90.2123 22.6591 89.9403C21.9712 89.6764 21.2114 89.5404 20.3876 89.5404H16.7244V100.09H20.3876C21.2114 100.09 21.9712 99.9541 22.6591 99.6822C23.3469 99.4102 23.9388 99.0423 24.4347 98.5704C24.9306 98.0985 25.3145 97.5387 25.5864 96.8908C25.8584 96.2429 25.9943 95.5471 25.9943 94.8033ZM24.7626 94.8352C24.7626 95.4271 24.6586 95.979 24.4507 96.4749C24.2427 96.9788 23.9548 97.4187 23.5789 97.7946C23.203 98.1705 22.7391 98.4665 22.2032 98.6744C21.6593 98.8824 21.0594 98.9943 20.3956 98.9943H17.9241V90.6442H20.3956C21.0594 90.6442 21.6593 90.7481 22.2032 90.9721C22.7471 91.188 23.203 91.484 23.5789 91.8599C23.9548 92.2358 24.2507 92.6837 24.4507 93.1956C24.6586 93.7075 24.7626 94.2594 24.7626 94.8352ZM35.9202 98.6264L32.169 89.5404H30.8413L35.3763 100.17H36.4321L40.9671 89.5404H39.6874L35.9202 98.6264ZM47.0697 89.5404V100.09H48.2615V89.5404H47.0697ZM56.1797 92.1638C56.1797 91.9239 56.2357 91.6999 56.3397 91.484C56.4437 91.276 56.5957 91.0921 56.7956 90.9401C56.9876 90.7881 57.2275 90.6682 57.5075 90.5802C57.7794 90.4922 58.0913 90.4442 58.4353 90.4442C58.9791 90.4442 59.499 90.5322 59.9949 90.7161C60.4908 90.9001 60.9867 91.188 61.4826 91.588L62.1784 90.6682C61.6346 90.2443 61.0747 89.9163 60.4988 89.7084C59.9229 89.4924 59.2431 89.3884 58.4752 89.3884C57.9714 89.3884 57.5075 89.4604 57.0915 89.6044C56.6676 89.7484 56.2997 89.9483 55.9878 90.2123C55.6759 90.4682 55.4359 90.7721 55.2679 91.1241C55.1 91.476 55.012 91.8679 55.012 92.2838C55.012 92.6997 55.084 93.1076 55.22 93.4276C55.3639 93.7475 55.5799 94.0354 55.8678 94.2754C56.1557 94.5153 56.5317 94.7233 56.9796 94.8912C57.4275 95.0592 57.9554 95.2112 58.5552 95.3471C59.1071 95.4671 59.563 95.5951 59.9229 95.723C60.2829 95.851 60.5628 96.003 60.7628 96.163C60.9627 96.3229 61.1067 96.4989 61.1867 96.6988C61.2666 96.8988 61.3066 97.1227 61.3066 97.3707C61.3066 97.9146 61.0907 98.3465 60.6668 98.6824C60.2429 99.0103 59.667 99.1783 58.9551 99.1783C58.2433 99.1783 57.5714 99.0583 57.0116 98.8104C56.4517 98.5624 55.8918 98.1865 55.3399 97.6906L54.6041 98.5624C55.2359 99.1303 55.8998 99.5542 56.6036 99.8262C57.2995 100.098 58.0753 100.234 58.9152 100.234C59.435 100.234 59.9229 100.162 60.3628 100.026C60.8027 99.8821 61.1787 99.6822 61.4986 99.4182C61.8105 99.1543 62.0585 98.8424 62.2344 98.4665C62.4104 98.0905 62.5064 97.6826 62.5064 97.2267C62.5064 96.4109 62.2264 95.771 61.6665 95.3071C61.1067 94.8432 60.2429 94.4833 59.0671 94.2194C58.4832 94.0994 58.0034 93.9714 57.6354 93.8355C57.2595 93.6995 56.9716 93.5475 56.7636 93.3796C56.5557 93.2116 56.4037 93.0276 56.3237 92.8277C56.2437 92.6277 56.2037 92.4038 56.2037 92.1478L56.1797 92.1638ZM79.1187 94.8033C79.1187 94.0674 78.9908 93.3716 78.7348 92.7157C78.4789 92.0599 78.111 91.476 77.6391 90.9801C77.1672 90.4842 76.5993 90.0923 75.9434 89.7963C75.2876 89.5084 74.5517 89.3564 73.7519 89.3564C72.9521 89.3564 72.2163 89.5084 71.5524 89.8043C70.8885 90.1003 70.3207 90.5002 69.8488 91.0041C69.3769 91.508 69.0089 92.0838 68.745 92.7477C68.4811 93.4036 68.3531 94.0994 68.3531 94.8352C68.3531 95.5711 68.4811 96.2669 68.737 96.9228C68.993 97.5786 69.3609 98.1625 69.8328 98.6584C70.3047 99.1543 70.8725 99.5462 71.5284 99.8421C72.1842 100.13 72.9201 100.282 73.7199 100.282C74.5197 100.282 75.2556 100.138 75.9194 99.8341C76.5833 99.5382 77.1512 99.1383 77.6231 98.6344C78.095 98.1305 78.4629 97.5547 78.7268 96.8908C78.9908 96.2349 79.1187 95.5391 79.1187 94.8033ZM77.879 94.8352C77.879 95.4351 77.775 96.003 77.5671 96.5309C77.3591 97.0588 77.0792 97.5147 76.7193 97.9066C76.3593 98.2985 75.9194 98.6104 75.4155 98.8344C74.9117 99.0583 74.3518 99.1703 73.7519 99.1703C73.152 99.1703 72.5922 99.0583 72.0883 98.8264C71.5844 98.5944 71.1445 98.2825 70.7686 97.8906C70.3926 97.4987 70.1047 97.0348 69.9047 96.5069C69.6968 95.971 69.5928 95.4031 69.5928 94.8033C69.5928 94.2034 69.6968 93.6355 69.9047 93.1076C70.1127 92.5797 70.3926 92.1238 70.7526 91.7319C71.1125 91.34 71.5524 91.0281 72.0563 90.8041C72.5602 90.5802 73.12 90.4682 73.7199 90.4682C74.3198 90.4682 74.8797 90.5802 75.3836 90.8121C75.8874 91.0441 76.3273 91.356 76.7033 91.7479C77.0792 92.1398 77.3671 92.6037 77.5671 93.1316C77.775 93.6675 77.879 94.2354 77.879 94.8352ZM94.2754 100.09L91.0361 95.779C91.4441 95.7071 91.828 95.5871 92.1799 95.4191C92.5318 95.2511 92.8357 95.0352 93.0917 94.7793C93.3476 94.5233 93.5476 94.2194 93.6836 93.8755C93.8275 93.5315 93.8915 93.1316 93.8915 92.6917C93.8915 92.2198 93.8035 91.7879 93.6196 91.404C93.4356 91.0201 93.1797 90.6841 92.8517 90.4122C92.5238 90.1323 92.1239 89.9243 91.652 89.7723C91.1801 89.6204 90.6602 89.5484 90.0763 89.5484H85.5413V100.098H86.7331V95.995H89.7484L92.8117 100.098H94.2754V100.09ZM92.7078 92.7397C92.7078 93.0836 92.6438 93.3876 92.5078 93.6595C92.3718 93.9314 92.1879 94.1634 91.9399 94.3473C91.7 94.5313 91.4121 94.6753 91.0761 94.7793C90.7482 94.8832 90.3803 94.9312 89.9884 94.9312H86.7411V90.6362H90.0044C90.8602 90.6362 91.524 90.8201 91.9959 91.188C92.4678 91.556 92.7078 92.0758 92.7078 92.7397ZM104.473 95.899L108.856 89.5404H107.473L103.889 94.8192L100.338 89.5404H98.8904L103.273 95.915V100.09H104.465V95.899H104.473ZM9.94984 114.551L9.16602 113.783C8.66213 114.263 8.15024 114.639 7.63035 114.903C7.11047 115.167 6.4866 115.303 5.75876 115.303C5.17489 115.303 4.639 115.191 4.13511 114.967C3.63922 114.743 3.20732 114.431 2.8394 114.039C2.47148 113.647 2.18354 113.183 1.98358 112.655C1.77563 112.119 1.67165 111.552 1.67165 110.936C1.67165 110.32 1.77563 109.752 1.98358 109.224C2.19154 108.696 2.47148 108.24 2.8394 107.848C3.20732 107.456 3.63922 107.153 4.13511 106.929C4.631 106.705 5.17489 106.601 5.75876 106.601C6.4786 106.601 7.10247 106.737 7.62235 107.009C8.14224 107.281 8.62213 107.624 9.07803 108.048L9.89386 107.177C9.62991 106.929 9.35797 106.697 9.07803 106.489C8.79809 106.281 8.48616 106.105 8.15824 105.961C7.83031 105.817 7.47038 105.705 7.07847 105.625C6.69455 105.545 6.25465 105.505 5.77476 105.505C4.99893 105.505 4.28708 105.649 3.63123 105.937C2.97537 106.225 2.41549 106.617 1.94359 107.113C1.4717 107.608 1.10378 108.192 0.831837 108.856C0.567894 109.52 0.431924 110.224 0.431924 110.984C0.431924 111.744 0.567894 112.463 0.831837 113.127C1.09578 113.791 1.4637 114.367 1.94359 114.855C2.41549 115.343 2.97537 115.727 3.61523 116.007C4.25509 116.287 4.95893 116.431 5.72677 116.431C6.20666 116.431 6.64657 116.383 7.03848 116.295C7.43039 116.207 7.79831 116.079 8.14224 115.919C8.48616 115.759 8.8061 115.567 9.10203 115.335C9.39797 115.111 9.6859 114.855 9.94984 114.575V114.551ZM25.9384 110.928C25.9384 110.192 25.8104 109.496 25.5544 108.84C25.2985 108.184 24.9306 107.6 24.4587 107.105C23.9868 106.609 23.4189 106.217 22.763 105.921C22.1072 105.633 21.3714 105.481 20.5715 105.481C19.7717 105.481 19.0359 105.633 18.372 105.929C17.7082 106.225 17.1403 106.625 16.6684 107.129C16.1965 107.632 15.8286 108.208 15.5646 108.872C15.3007 109.528 15.1727 110.224 15.1727 110.96C15.1727 111.696 15.3007 112.391 15.5566 113.047C15.8126 113.703 16.1805 114.287 16.6524 114.783C17.1243 115.279 17.6922 115.671 18.348 115.967C19.0039 116.255 19.7397 116.407 20.5395 116.407C21.3394 116.407 22.0752 116.263 22.7391 115.959C23.4029 115.663 23.9708 115.263 24.4427 114.759C24.9146 114.255 25.2825 113.679 25.5464 113.015C25.8104 112.359 25.9384 111.664 25.9384 110.928ZM24.6986 110.96C24.6986 111.56 24.5946 112.127 24.3867 112.655C24.1787 113.183 23.8988 113.639 23.5389 114.031C23.179 114.423 22.7391 114.735 22.2352 114.959C21.7313 115.183 21.1714 115.295 20.5715 115.295C19.9717 115.295 19.4118 115.183 18.9079 114.951C18.404 114.719 17.9641 114.407 17.5882 114.015C17.2203 113.623 16.9243 113.159 16.7244 112.631C16.5164 112.095 16.4124 111.528 16.4124 110.928C16.4124 110.328 16.5164 109.76 16.7244 109.232C16.9323 108.704 17.2123 108.248 17.5802 107.856C17.9401 107.464 18.38 107.153 18.8839 106.929C19.3878 106.705 19.9477 106.593 20.5475 106.593C21.1474 106.593 21.7073 106.705 22.2112 106.937C22.7151 107.169 23.155 107.48 23.5309 107.872C23.9068 108.264 24.1947 108.728 24.3947 109.256C24.6026 109.792 24.7066 110.36 24.7066 110.96H24.6986ZM40.1273 114.127L33.4807 105.673H32.3689V116.223H33.5287V107.568L40.3432 116.223H41.295V105.673H40.1353V114.127H40.1273ZM49.1013 108.296C49.1013 108.056 49.1573 107.832 49.2613 107.616C49.3652 107.408 49.5172 107.225 49.7172 107.073C49.9091 106.921 50.1491 106.801 50.429 106.713C50.7089 106.625 51.0129 106.577 51.3568 106.577C51.9007 106.577 52.4206 106.665 52.9165 106.849C53.4124 107.033 53.9082 107.321 54.4041 107.72L55.1 106.801C54.5561 106.377 53.9962 106.049 53.4203 105.841C52.8445 105.625 52.1646 105.521 51.3968 105.521C50.8929 105.521 50.429 105.593 50.0131 105.737C49.5892 105.881 49.2213 106.081 48.9093 106.345C48.5974 106.601 48.3575 106.905 48.1895 107.257C48.0215 107.608 47.9335 108 47.9335 108.416C47.9335 108.832 48.0055 109.24 48.1415 109.56C48.2855 109.888 48.5014 110.168 48.7894 110.408C49.0773 110.648 49.4532 110.856 49.9011 111.024C50.349 111.192 50.8769 111.352 51.4768 111.48C52.0287 111.6 52.4846 111.728 52.8445 111.856C53.2044 111.983 53.4763 112.135 53.6843 112.295C53.8842 112.455 54.0282 112.631 54.1082 112.831C54.1882 113.031 54.2282 113.255 54.2282 113.503C54.2282 114.047 54.0122 114.487 53.5883 114.815C53.1644 115.143 52.5885 115.311 51.8767 115.311C51.1648 115.311 50.493 115.191 49.9331 114.943C49.3732 114.695 48.8134 114.319 48.2615 113.823L47.5256 114.695C48.1575 115.263 48.8214 115.687 49.5252 115.959C50.221 116.231 50.9969 116.367 51.8367 116.367C52.3566 116.367 52.8445 116.295 53.2844 116.159C53.7243 116.015 54.1002 115.815 54.4201 115.551C54.7321 115.287 54.98 114.975 55.156 114.599C55.3319 114.223 55.4279 113.815 55.4279 113.359C55.4279 112.543 55.148 111.904 54.5881 111.44C54.0282 110.976 53.1644 110.616 51.9887 110.352C51.4048 110.232 50.9249 110.104 50.557 109.968C50.1891 109.832 49.8931 109.68 49.6852 109.512C49.4772 109.344 49.3252 109.16 49.2453 108.96C49.1653 108.76 49.1253 108.536 49.1253 108.28L49.1013 108.296ZM70.3686 105.665H69.1769V111.8C69.1769 112.951 68.889 113.823 68.3211 114.407C67.7452 114.991 66.9774 115.279 66.0016 115.279C65.0258 115.279 64.194 114.975 63.6261 114.359C63.0583 113.743 62.7703 112.863 62.7703 111.72V105.657H61.5786V111.792C61.5786 112.535 61.6825 113.191 61.8985 113.767C62.1065 114.343 62.4104 114.823 62.7943 115.207C63.1782 115.591 63.6421 115.887 64.178 116.079C64.7139 116.271 65.3138 116.375 65.9616 116.375C66.6095 116.375 67.2253 116.279 67.7612 116.079C68.2971 115.887 68.761 115.591 69.1449 115.199C69.5288 114.807 69.8328 114.319 70.0407 113.735C70.2487 113.151 70.3607 112.471 70.3607 111.704V105.657L70.3686 105.665ZM77.0952 116.223H84.2216V115.119H78.2869V105.665H77.0952V116.215V116.223ZM92.8117 106.769H96.355V105.665H88.0768V106.769H91.62V116.223H92.8117V106.769ZM102.618 105.665V116.215H103.809V105.665H102.618ZM118.574 114.127L111.928 105.673H110.816V116.223H111.976V107.568L118.79 116.223H119.742V105.673H118.582V114.127H118.574ZM135.762 114.791V110.592H131.403V111.648H134.611V114.279C134.251 114.575 133.803 114.823 133.267 115.031C132.731 115.239 132.163 115.343 131.563 115.343C130.923 115.343 130.34 115.231 129.828 115.015C129.316 114.791 128.876 114.487 128.516 114.095C128.156 113.703 127.876 113.239 127.676 112.695C127.484 112.159 127.38 111.568 127.38 110.936C127.38 110.344 127.484 109.784 127.684 109.256C127.884 108.728 128.164 108.264 128.516 107.872C128.868 107.48 129.292 107.169 129.78 106.937C130.276 106.705 130.811 106.593 131.395 106.593C131.763 106.593 132.107 106.625 132.411 106.681C132.715 106.745 132.995 106.825 133.251 106.929C133.507 107.033 133.747 107.161 133.971 107.305C134.195 107.448 134.403 107.616 134.603 107.792L135.37 106.889C135.107 106.665 134.843 106.473 134.563 106.297C134.283 106.121 133.987 105.969 133.675 105.849C133.355 105.729 133.019 105.641 132.651 105.577C132.283 105.513 131.883 105.489 131.435 105.489C130.643 105.489 129.924 105.641 129.276 105.937C128.628 106.233 128.076 106.633 127.612 107.137C127.148 107.64 126.788 108.224 126.532 108.888C126.276 109.552 126.148 110.248 126.148 110.968C126.148 111.688 126.268 112.431 126.516 113.095C126.764 113.759 127.116 114.335 127.588 114.831C128.052 115.327 128.62 115.711 129.276 115.991C129.932 116.271 130.683 116.415 131.515 116.415C132.411 116.415 133.219 116.255 133.931 115.943C134.651 115.631 135.258 115.247 135.746 114.807L135.762 114.791ZM1.82362 124.421C1.82362 124.181 1.87961 123.957 1.98358 123.741C2.08756 123.533 2.23953 123.349 2.43948 123.197C2.63144 123.045 2.87139 122.925 3.15133 122.837C3.43127 122.749 3.7352 122.701 4.07913 122.701C4.62301 122.701 5.14289 122.789 5.63879 122.973C6.13468 123.157 6.63057 123.445 7.12646 123.845L7.82231 122.925C7.27843 122.501 6.71855 122.173 6.14268 121.965C5.5668 121.749 4.88695 121.645 4.11912 121.645C3.61523 121.645 3.15133 121.717 2.73542 121.861C2.31151 122.005 1.94359 122.205 1.63166 122.469C1.31973 122.725 1.07978 123.029 0.911818 123.381C0.743855 123.733 0.655874 124.125 0.655874 124.541C0.655874 124.957 0.72786 125.365 0.863831 125.685C1.0078 126.012 1.22375 126.292 1.51169 126.532C1.79962 126.772 2.17554 126.98 2.62344 127.148C3.07135 127.316 3.59923 127.468 4.1991 127.604C4.75098 127.724 5.20688 127.852 5.5668 127.98C5.92672 128.108 6.19866 128.26 6.40662 128.42C6.60657 128.58 6.75054 128.756 6.83053 128.956C6.91051 129.156 6.9505 129.38 6.9505 129.628C6.9505 130.172 6.73455 130.611 6.31064 130.939C5.88673 131.267 5.31086 131.435 4.59901 131.435C3.88717 131.435 3.21532 131.315 2.65544 131.067C2.09556 130.819 1.53568 130.443 0.983803 129.948L0.247965 130.819C0.879827 131.387 1.54368 131.811 2.24753 132.083C2.94338 132.355 3.71921 132.491 4.55902 132.491C5.07891 132.491 5.5668 132.419 6.0067 132.283C6.44661 132.139 6.82253 131.939 7.14246 131.675C7.45439 131.411 7.70233 131.099 7.8783 130.723C8.05426 130.347 8.15024 129.94 8.15024 129.484C8.15024 128.668 7.8703 128.028 7.31042 127.564C6.75054 127.1 5.88673 126.74 4.71099 126.476C4.12712 126.356 3.64722 126.228 3.2793 126.092C2.90338 125.956 2.61545 125.804 2.40749 125.637C2.19954 125.469 2.04757 125.285 1.96759 125.085C1.8876 124.885 1.84762 124.661 1.84762 124.405L1.82362 124.421ZM24.7626 127.06C24.7626 126.324 24.6346 125.629 24.3787 124.973C24.1228 124.317 23.7548 123.733 23.2829 123.237C22.811 122.741 22.2432 122.349 21.5873 122.053C20.9314 121.765 20.1956 121.613 19.3958 121.613C18.596 121.613 17.8601 121.765 17.1963 122.061C16.5324 122.357 15.9645 122.757 15.4926 123.261C15.0207 123.765 14.6528 124.341 14.3889 125.005C14.1249 125.661 13.997 126.356 13.997 127.092C13.997 127.828 14.1249 128.524 14.3809 129.18C14.6368 129.836 15.0047 130.419 15.4766 130.915C15.9485 131.411 16.5164 131.803 17.1723 132.099C17.8281 132.387 18.564 132.539 19.3638 132.539C20.1636 132.539 20.8995 132.395 21.5633 132.091C22.2272 131.795 22.795 131.395 23.2669 130.891C23.7388 130.387 24.1068 129.812 24.3707 129.148C24.6346 128.492 24.7626 127.796 24.7626 127.06ZM23.5229 127.084C23.5229 127.684 23.4189 128.252 23.2109 128.78C23.003 129.308 22.7231 129.764 22.3551 130.156C21.9952 130.547 21.5553 130.859 21.0514 131.083C20.5475 131.307 19.9877 131.419 19.3878 131.419C18.7879 131.419 18.228 131.307 17.7241 131.075C17.2203 130.843 16.7804 130.531 16.4044 130.14C16.0285 129.748 15.7406 129.284 15.5406 128.756C15.3327 128.22 15.2287 127.652 15.2287 127.052C15.2287 126.452 15.3327 125.884 15.5406 125.357C15.7486 124.829 16.0285 124.373 16.3884 123.981C16.7484 123.589 17.1883 123.277 17.6922 123.053C18.196 122.829 18.7559 122.717 19.3558 122.717C19.9557 122.717 20.5155 122.829 21.0194 123.061C21.5233 123.293 21.9632 123.605 22.3391 123.997C22.7151 124.389 23.003 124.853 23.203 125.381C23.4109 125.916 23.5149 126.484 23.5149 127.084H23.5229ZM31.1852 132.347H38.3117V131.243H32.3689V121.789H31.1772V132.339L31.1852 132.347ZM52.7485 121.797H51.5568V127.932C51.5568 129.084 51.2688 129.956 50.7009 130.539C50.1251 131.123 49.3572 131.411 48.3814 131.411C47.4057 131.411 46.5738 131.107 46.006 130.491C45.4381 129.876 45.1582 128.996 45.1582 127.852V121.789H43.9664V127.924C43.9664 128.668 44.0704 129.324 44.2863 129.9C44.4943 130.475 44.7982 130.955 45.1821 131.339C45.5661 131.723 46.03 132.019 46.5658 132.211C47.1017 132.411 47.7016 132.507 48.3495 132.507C48.9973 132.507 49.6132 132.411 50.1491 132.211C50.6849 132.019 51.1488 131.723 51.5328 131.331C51.9167 130.939 52.2206 130.451 52.4286 129.868C52.6365 129.284 52.7485 128.604 52.7485 127.836V121.789V121.797ZM63.4582 122.901H67.0014V121.797H58.7232V122.901H62.2664V132.355H63.4582V122.901ZM73.264 121.797V132.347H74.4558V121.797H73.264ZM91.756 127.06C91.756 126.324 91.628 125.629 91.3721 124.973C91.1161 124.317 90.7482 123.733 90.2763 123.237C89.8044 122.741 89.2365 122.349 88.5807 122.053C87.9248 121.765 87.189 121.613 86.3891 121.613C85.5893 121.613 84.8535 121.765 84.1896 122.061C83.5258 122.357 82.9579 122.757 82.486 123.261C82.0141 123.765 81.6462 124.341 81.3822 125.005C81.1183 125.661 80.9903 126.356 80.9903 127.092C80.9903 127.828 81.1183 128.524 81.3743 129.18C81.6302 129.836 81.9981 130.419 82.47 130.915C82.9419 131.411 83.5098 131.803 84.1656 132.099C84.8215 132.387 85.5573 132.539 86.3572 132.539C87.157 132.539 87.8928 132.395 88.5567 132.091C89.2205 131.795 89.7884 131.395 90.2603 130.891C90.7322 130.387 91.1001 129.812 91.3641 129.148C91.628 128.492 91.756 127.796 91.756 127.06ZM90.5162 127.084C90.5162 127.684 90.4123 128.252 90.2043 128.78C89.9964 129.308 89.7164 129.764 89.3565 130.156C88.9966 130.547 88.5567 130.859 88.0528 131.083C87.5489 131.307 86.989 131.419 86.3891 131.419C85.7893 131.419 85.2294 131.307 84.7255 131.075C84.2216 130.843 83.7817 130.531 83.4058 130.14C83.0299 129.748 82.7419 129.284 82.542 128.756C82.334 128.22 82.2301 127.652 82.2301 127.052C82.2301 126.452 82.334 125.884 82.542 125.357C82.7499 124.829 83.0299 124.373 83.3898 123.981C83.7497 123.589 84.1896 123.277 84.6935 123.053C85.1974 122.829 85.7573 122.717 86.3572 122.717C86.957 122.717 87.5169 122.829 88.0208 123.061C88.5247 123.293 88.9646 123.605 89.3405 123.997C89.7164 124.389 90.0044 124.853 90.2043 125.381C90.4123 125.916 90.5162 126.484 90.5162 127.084ZM105.945 130.252L99.2983 121.797H98.1866V132.347H99.3463V123.693L106.161 132.347H107.113V121.797H105.953V130.252H105.945ZM114.927 124.421C114.927 124.181 114.983 123.957 115.087 123.741C115.191 123.533 115.343 123.349 115.543 123.197C115.743 123.045 115.975 122.925 116.255 122.837C116.535 122.749 116.838 122.701 117.182 122.701C117.726 122.701 118.246 122.789 118.742 122.973C119.238 123.157 119.734 123.445 120.23 123.845L120.926 122.925C120.382 122.501 119.822 122.173 119.246 121.965C118.67 121.749 117.99 121.645 117.222 121.645C116.719 121.645 116.255 121.717 115.839 121.861C115.415 122.005 115.047 122.205 114.735 122.469C114.423 122.725 114.183 123.029 114.015 123.381C113.847 123.733 113.759 124.125 113.759 124.541C113.759 124.957 113.831 125.365 113.967 125.685C114.111 126.012 114.327 126.292 114.615 126.532C114.903 126.772 115.279 126.98 115.727 127.148C116.175 127.316 116.703 127.468 117.302 127.604C117.854 127.724 118.31 127.852 118.67 127.98C119.03 128.108 119.302 128.26 119.51 128.42C119.71 128.58 119.854 128.756 119.934 128.956C120.014 129.156 120.054 129.38 120.054 129.628C120.054 130.172 119.838 130.611 119.414 130.939C118.99 131.267 118.414 131.435 117.702 131.435C116.99 131.435 116.319 131.315 115.759 131.067C115.199 130.819 114.639 130.443 114.087 129.948L113.351 130.819C113.983 131.387 114.647 131.811 115.351 132.083C116.047 132.355 116.823 132.491 117.662 132.491C118.182 132.491 118.67 132.419 119.11 132.283C119.55 132.139 119.926 131.939 120.246 131.675C120.558 131.411 120.806 131.099 120.982 130.723C121.158 130.347 121.254 129.94 121.254 129.484C121.254 128.668 120.974 128.028 120.414 127.564C119.854 127.1 118.99 126.74 117.814 126.476C117.23 126.356 116.751 126.228 116.383 126.092C116.015 125.956 115.719 125.804 115.511 125.637C115.303 125.469 115.151 125.285 115.071 125.085C114.991 124.885 114.951 124.661 114.951 124.405L114.927 124.421ZM132.083 132.347H139.21V131.243H133.275V121.789H132.083V132.339V132.347ZM145.328 132.347H152.455V131.243H146.52V121.789H145.328V132.339V132.347ZM167.012 130.675L166.228 129.908C165.724 130.387 165.212 130.763 164.692 131.027C164.172 131.291 163.548 131.427 162.82 131.427C162.237 131.427 161.701 131.315 161.197 131.091C160.701 130.867 160.269 130.555 159.901 130.164C159.533 129.772 159.245 129.308 159.045 128.78C158.837 128.244 158.733 127.676 158.733 127.06C158.733 126.444 158.837 125.876 159.045 125.349C159.253 124.821 159.541 124.365 159.901 123.973C160.269 123.581 160.701 123.277 161.197 123.053C161.693 122.829 162.237 122.725 162.82 122.725C163.54 122.725 164.164 122.861 164.684 123.133C165.204 123.405 165.684 123.749 166.14 124.173L166.956 123.301C166.692 123.053 166.42 122.821 166.14 122.613C165.86 122.405 165.548 122.229 165.22 122.085C164.892 121.941 164.532 121.829 164.14 121.749C163.756 121.669 163.316 121.629 162.836 121.629C162.061 121.629 161.349 121.773 160.693 122.061C160.037 122.349 159.477 122.741 159.005 123.237C158.533 123.733 158.165 124.317 157.894 124.981C157.63 125.645 157.494 126.356 157.494 127.108C157.494 127.86 157.63 128.588 157.894 129.252C158.157 129.916 158.525 130.491 159.005 130.979C159.477 131.467 160.037 131.851 160.677 132.131C161.317 132.411 162.021 132.555 162.788 132.555C163.268 132.555 163.708 132.507 164.1 132.419C164.492 132.331 164.86 132.203 165.204 132.043C165.548 131.883 165.868 131.691 166.164 131.459C166.46 131.235 166.748 130.979 167.012 130.699V130.675Z" fill="white"/>
<path fill-rule="evenodd" clip-rule="evenodd" d="M0.663856 138.61H0V183H183V0H0V83.2778H0.663856V0.663856H182.336V182.336H0.663856V138.61Z" fill="white"/>
</svg>
