<svg width="127" height="127" viewBox="0 0 127 127" fill="none" xmlns="http://www.w3.org/2000/svg">

<path fill-rule="evenodd" clip-rule="evenodd" d="M4.11307 62.0902H3.34153L0.0055542 69.467H0.854813L1.72072 67.5298H5.70612L6.56648 69.467H7.45459L4.11862 62.0902H4.11307ZM5.37863 66.7972H2.04266L3.71342 63.0615L5.37863 66.7972ZM18.0398 65.7925C18.0398 65.2763 17.9454 64.7933 17.7567 64.3493C17.568 63.9052 17.3015 63.5167 16.9574 63.1892C16.6132 62.8617 16.2025 62.6064 15.7251 62.4176C15.2478 62.2345 14.7205 62.1401 14.1487 62.1401H11.6065V69.4615H14.1487C14.7205 69.4615 15.2478 69.3671 15.7251 69.1784C16.2025 68.9897 16.6132 68.7343 16.9574 68.4069C17.3015 68.0794 17.568 67.6908 17.7567 67.2412C17.9454 66.7916 18.0398 66.3087 18.0398 65.7925ZM17.185 65.8147C17.185 66.2254 17.1128 66.6084 16.9685 66.9526C16.8242 67.3023 16.6243 67.6075 16.3635 67.8684C16.1026 68.1293 15.7806 68.3347 15.4087 68.479C15.0313 68.6233 14.615 68.701 14.1543 68.701H12.4391V62.9061H14.1543C14.615 62.9061 15.0313 62.9783 15.4087 63.1337C15.7862 63.2836 16.1026 63.4889 16.3635 63.7498C16.6243 64.0107 16.8297 64.3215 16.9685 64.6768C17.1128 65.032 17.185 65.415 17.185 65.8147ZM24.9282 68.4457L22.3249 62.1401H21.4035L24.5507 69.517H25.2834L28.4307 62.1401H27.5426L24.9282 68.4457ZM32.6659 62.1401V69.4615H33.4929V62.1401H32.6659ZM38.9881 63.9607C38.9881 63.7942 39.027 63.6388 39.0991 63.4889C39.1713 63.3446 39.2768 63.217 39.4155 63.1115C39.5487 63.006 39.7153 62.9228 39.9095 62.8617C40.0983 62.8006 40.3147 62.7673 40.5534 62.7673C40.9309 62.7673 41.2917 62.8284 41.6358 62.9561C41.9799 63.0837 42.3241 63.2836 42.6682 63.5611L43.1511 62.9228C42.7737 62.6286 42.3851 62.401 41.9855 62.2567C41.5858 62.1068 41.114 62.0347 40.5812 62.0347C40.2315 62.0347 39.9095 62.0846 39.6209 62.1845C39.3267 62.2844 39.0714 62.4232 38.8549 62.6064C38.6384 62.784 38.4719 62.9949 38.3553 63.2392C38.2388 63.4834 38.1777 63.7554 38.1777 64.044C38.1777 64.3326 38.2277 64.6157 38.322 64.8378C38.4219 65.0598 38.5718 65.2596 38.7716 65.4261C38.9715 65.5926 39.2323 65.737 39.5432 65.8535C39.854 65.9701 40.2204 66.0756 40.6367 66.1699C41.0197 66.2532 41.3361 66.342 41.5858 66.4308C41.8356 66.5196 42.0299 66.6251 42.1687 66.7361C42.3074 66.8471 42.4073 66.9692 42.4629 67.108C42.5184 67.2468 42.5461 67.4022 42.5461 67.5742C42.5461 67.9517 42.3962 68.2514 42.1021 68.4846C41.8079 68.7121 41.4082 68.8287 40.9142 68.8287C40.4202 68.8287 39.9539 68.7454 39.5654 68.5734C39.1768 68.4013 38.7883 68.1404 38.4053 67.7963L37.8946 68.4013C38.3331 68.7954 38.7938 69.0896 39.2823 69.2783C39.7652 69.467 40.3036 69.5614 40.8865 69.5614C41.2473 69.5614 41.5858 69.5114 41.8911 69.4171C42.1964 69.3172 42.4573 69.1784 42.6793 68.9952C42.8958 68.8121 43.0679 68.5956 43.19 68.3347C43.3121 68.0738 43.3787 67.7907 43.3787 67.4743C43.3787 66.9082 43.1844 66.4641 42.7959 66.1422C42.4073 65.8202 41.8079 65.5704 40.9919 65.3873C40.5867 65.304 40.2537 65.2152 39.9983 65.1208C39.7375 65.0265 39.5376 64.921 39.3933 64.8045C39.249 64.6879 39.1435 64.5602 39.088 64.4215C39.0325 64.2827 39.0048 64.1273 39.0048 63.9496L38.9881 63.9607ZM54.9075 65.7925C54.9075 65.2818 54.8187 64.7989 54.6411 64.3437C54.4635 63.8886 54.2081 63.4834 53.8806 63.1392C53.5532 62.7951 53.159 62.5231 52.7039 62.3177C52.2487 62.1179 51.7381 62.0125 51.183 62.0125C50.6279 62.0125 50.1173 62.1179 49.6566 62.3233C49.1959 62.5287 48.8018 62.8062 48.4743 63.1559C48.1468 63.5056 47.8914 63.9052 47.7083 64.3659C47.5251 64.8211 47.4363 65.304 47.4363 65.8147C47.4363 66.3253 47.5251 66.8083 47.7027 67.2634C47.8803 67.7186 48.1357 68.1238 48.4632 68.4679C48.7907 68.8121 49.1847 69.084 49.6399 69.2894C50.0951 69.4892 50.6057 69.5947 51.1608 69.5947C51.7159 69.5947 52.2265 69.4948 52.6872 69.2839C53.1479 69.0785 53.5421 68.801 53.8695 68.4513C54.197 68.1016 54.4524 67.7019 54.6355 67.2412C54.8187 66.7861 54.9075 66.3031 54.9075 65.7925ZM54.0472 65.8147C54.0472 66.231 53.975 66.6251 53.8307 66.9914C53.6864 67.3578 53.4921 67.6742 53.2423 67.9461C52.9925 68.2181 52.6872 68.4346 52.3375 68.59C51.9879 68.7454 51.5993 68.8232 51.183 68.8232C50.7667 68.8232 50.3782 68.7454 50.0285 68.5845C49.6788 68.4235 49.3735 68.207 49.1126 67.935C48.8517 67.6631 48.6519 67.3411 48.5131 66.9748C48.3688 66.6029 48.2966 66.2088 48.2966 65.7925C48.2966 65.3762 48.3688 64.9821 48.5131 64.6157C48.6574 64.2494 48.8517 63.933 49.1015 63.661C49.3513 63.389 49.6566 63.1725 50.0063 63.0171C50.3559 62.8617 50.7445 62.784 51.1608 62.784C51.5771 62.784 51.9657 62.8617 52.3153 63.0227C52.665 63.1836 52.9703 63.4001 53.2312 63.6721C53.4921 63.9441 53.6919 64.266 53.8307 64.6324C53.975 65.0043 54.0472 65.3984 54.0472 65.8147ZM65.4261 69.4615L63.1781 66.4697C63.4612 66.4197 63.7276 66.3364 63.9718 66.2199C64.216 66.1033 64.427 65.9534 64.6046 65.7758C64.7822 65.5982 64.921 65.3873 65.0154 65.1486C65.1153 64.9099 65.1597 64.6324 65.1597 64.3271C65.1597 63.9996 65.0986 63.6999 64.9709 63.4334C64.8433 63.167 64.6656 62.9339 64.4381 62.7451C64.2105 62.5509 63.933 62.4065 63.6055 62.3011C63.278 62.1956 62.9172 62.1457 62.512 62.1457H59.3647V69.467H60.1918V66.6195H62.2844L64.4103 69.467H65.4261V69.4615ZM64.3382 64.3604C64.3382 64.5991 64.2938 64.81 64.1994 64.9987C64.105 65.1874 63.9774 65.3484 63.8053 65.4761C63.6388 65.6037 63.4389 65.7037 63.2058 65.7758C62.9782 65.848 62.7229 65.8813 62.4509 65.8813H60.1973V62.9006H62.462C63.056 62.9006 63.5167 63.0282 63.8442 63.2836C64.1716 63.5389 64.3382 63.8997 64.3382 64.3604ZM72.5032 66.5529L75.545 62.1401H74.5847L72.098 65.8036L69.6335 62.1401H68.6289L71.6706 66.564V69.4615H72.4977V66.5529H72.5032ZM6.90507 79.4972L6.36111 78.9643C6.01141 79.2973 5.65617 79.5582 5.29537 79.7414C4.93458 79.9246 4.50162 80.0189 3.99651 80.0189C3.59131 80.0189 3.21941 79.9412 2.86971 79.7858C2.52557 79.6304 2.22583 79.4139 1.9705 79.1419C1.71517 78.8699 1.51535 78.548 1.37658 78.1816C1.23226 77.8097 1.1601 77.4156 1.1601 76.9882C1.1601 76.5608 1.23226 76.1667 1.37658 75.8004C1.5209 75.434 1.71517 75.1177 1.9705 74.8457C2.22583 74.5737 2.52557 74.3628 2.86971 74.2073C3.21386 74.0519 3.59131 73.9798 3.99651 73.9798C4.49607 73.9798 4.92902 74.0741 5.28982 74.2628C5.65062 74.4516 5.98366 74.6902 6.30005 74.9844L6.86622 74.3794C6.68305 74.2073 6.49432 74.0464 6.30005 73.902C6.10577 73.7577 5.8893 73.6356 5.66172 73.5357C5.43414 73.4358 5.18436 73.3581 4.91237 73.3026C4.64594 73.2471 4.34065 73.2193 4.00761 73.2193C3.46919 73.2193 2.97518 73.3192 2.52002 73.519C2.06487 73.7189 1.67632 73.9909 1.34882 74.335C1.02133 74.6791 0.766001 75.0843 0.577278 75.5451C0.394105 76.0058 0.299743 76.4942 0.299743 77.0215C0.299743 77.5489 0.394105 78.0484 0.577278 78.5091C0.760451 78.9698 1.01578 79.3695 1.34882 79.7081C1.67632 80.0467 2.06486 80.3131 2.50892 80.5074C2.95298 80.7017 3.44144 80.8016 3.9743 80.8016C4.30735 80.8016 4.61264 80.7683 4.88462 80.7072C5.1566 80.6461 5.41194 80.5573 5.65062 80.4463C5.8893 80.3353 6.11132 80.2021 6.3167 80.0411C6.52208 79.8857 6.7219 79.7081 6.90507 79.5138V79.4972ZM18.0009 76.9827C18.0009 76.472 17.9121 75.9891 17.7345 75.5339C17.5569 75.0788 17.3015 74.6736 16.974 74.3294C16.6466 73.9853 16.2525 73.7133 15.7973 73.5079C15.3421 73.3081 14.8315 73.2027 14.2764 73.2027C13.7213 73.2027 13.2107 73.3081 12.75 73.5135C12.2893 73.7189 11.8952 73.9964 11.5677 74.3461C11.2402 74.6958 10.9848 75.0954 10.8017 75.5562C10.6185 76.0113 10.5297 76.4942 10.5297 77.0049C10.5297 77.5156 10.6185 77.9985 10.7961 78.4536C10.9737 78.9088 11.2291 79.314 11.5566 79.6581C11.8841 80.0023 12.2782 80.2742 12.7333 80.4796C13.1885 80.6794 13.6991 80.7849 14.2542 80.7849C14.8093 80.7849 15.3199 80.685 15.7806 80.4741C16.2414 80.2687 16.6354 79.9912 16.9629 79.6415C17.2904 79.2918 17.5458 78.8921 17.7289 78.4314C17.9121 77.9763 18.0009 77.4933 18.0009 76.9827ZM17.1406 77.0049C17.1406 77.4212 17.0684 77.8153 16.9241 78.1816C16.7798 78.548 16.5855 78.8644 16.3357 79.1364C16.0859 79.4083 15.7806 79.6248 15.431 79.7802C15.0813 79.9357 14.6927 80.0134 14.2764 80.0134C13.8601 80.0134 13.4716 79.9357 13.1219 79.7747C12.7722 79.6137 12.4669 79.3972 12.206 79.1253C11.9507 78.8533 11.7453 78.5313 11.6065 78.165C11.4622 77.7931 11.39 77.399 11.39 76.9827C11.39 76.5664 11.4622 76.1723 11.6065 75.8059C11.7508 75.4396 11.9451 75.1232 12.2004 74.8512C12.4502 74.5792 12.7555 74.3628 13.1052 74.2073C13.4549 74.0519 13.8434 73.9742 14.2598 73.9742C14.6761 73.9742 15.0646 74.0519 15.4143 74.2129C15.764 74.3739 16.0693 74.5903 16.3302 74.8623C16.591 75.1343 16.7909 75.4562 16.9296 75.8226C17.074 76.1945 17.1461 76.5886 17.1461 77.0049H17.1406ZM27.8479 79.203L23.2352 73.3359H22.4637V80.6572H23.2685V74.6514L27.9977 80.6572H28.6583V73.3359H27.8534V79.203H27.8479ZM34.0757 75.1565C34.0757 74.99 34.1146 74.8346 34.1868 74.6847C34.2589 74.5404 34.3644 74.4127 34.5032 74.3072C34.6364 74.2018 34.8029 74.1185 34.9972 74.0575C35.1914 73.9964 35.4024 73.9631 35.641 73.9631C36.0185 73.9631 36.3793 74.0242 36.7234 74.1518C37.0676 74.2795 37.4117 74.4793 37.7559 74.7569L38.2388 74.1185C37.8613 73.8243 37.4728 73.5968 37.0731 73.4524C36.6735 73.3026 36.2017 73.2304 35.6688 73.2304C35.3191 73.2304 34.9972 73.2804 34.7085 73.3803C34.4143 73.4802 34.159 73.619 33.9425 73.8021C33.7261 73.9798 33.5595 74.1907 33.443 74.4349C33.3264 74.6791 33.2653 74.9511 33.2653 75.2398C33.2653 75.5284 33.3153 75.8115 33.4097 76.0335C33.5096 76.2611 33.6594 76.4554 33.8593 76.6219C34.0591 76.7884 34.32 76.9327 34.6308 77.0493C34.9417 77.1659 35.308 77.2769 35.7243 77.3657C36.1073 77.4489 36.4237 77.5378 36.6735 77.6266C36.9233 77.7154 37.112 77.8208 37.2563 77.9319C37.3951 78.0429 37.495 78.165 37.5505 78.3038C37.606 78.4425 37.6338 78.5979 37.6338 78.77C37.6338 79.1475 37.4839 79.4527 37.1897 79.6803C36.8955 79.9079 36.4959 80.0245 36.0018 80.0245C35.5078 80.0245 35.0416 79.9412 34.653 79.7691C34.2645 79.5971 33.8759 79.3362 33.4929 78.992L32.9823 79.5971C33.4208 79.9912 33.8815 80.2854 34.3699 80.4741C34.8528 80.6628 35.3913 80.7572 35.9741 80.7572C36.3349 80.7572 36.6735 80.7072 36.9788 80.6128C37.284 80.5129 37.5449 80.3742 37.767 80.191C37.9834 80.0078 38.1555 79.7913 38.2776 79.5305C38.3997 79.2696 38.4664 78.9865 38.4664 78.6701C38.4664 78.1039 38.2721 77.6599 37.8835 77.3379C37.495 77.016 36.8955 76.7662 36.0796 76.583C35.6744 76.4998 35.3413 76.411 35.086 76.3166C34.8306 76.2222 34.6253 76.1168 34.4809 76.0002C34.3366 75.8836 34.2312 75.756 34.1757 75.6172C34.1202 75.4784 34.0924 75.323 34.0924 75.1454L34.0757 75.1565ZM48.8351 73.3303H48.008V77.5877C48.008 78.387 47.8082 78.992 47.4141 79.3972C47.0144 79.8024 46.4816 80.0023 45.8044 80.0023C45.1272 80.0023 44.5499 79.7913 44.1558 79.3639C43.7617 78.9365 43.5619 78.326 43.5619 77.5322V73.3248H42.7348V77.5822C42.7348 78.0984 42.807 78.5535 42.9569 78.9532C43.1012 79.3528 43.3121 79.6859 43.5785 79.9523C43.845 80.2187 44.1669 80.4241 44.5388 80.5573C44.9107 80.6905 45.327 80.7627 45.7766 80.7627C46.2262 80.7627 46.6536 80.6961 47.0255 80.5573C47.3974 80.4241 47.7194 80.2187 47.9858 79.9468C48.2522 79.6748 48.4632 79.3362 48.6075 78.931C48.7518 78.5258 48.8295 78.054 48.8295 77.5211V73.3248L48.8351 73.3303ZM53.5032 80.6572H58.4489V79.8913H54.3303V73.3303H53.5032V80.6517V80.6572ZM64.4103 74.0963H66.8693V73.3303H61.1243V74.0963H63.5833V80.6572H64.4103V74.0963ZM71.2155 73.3303V80.6517H72.0425V73.3303H71.2155ZM82.2891 79.203L77.6765 73.3359H76.9049V80.6572H77.7098V74.6514L82.439 80.6572H83.0995V73.3359H82.2947V79.203H82.2891ZM94.2176 79.6637V76.7496H91.1924V77.4822H93.4183V79.3084C93.1685 79.5138 92.8577 79.6859 92.4858 79.8302C92.1139 79.9745 91.7198 80.0467 91.3035 80.0467C90.8594 80.0467 90.4542 79.969 90.099 79.8191C89.7437 79.6637 89.4384 79.4527 89.1886 79.1808C88.9389 78.9088 88.7446 78.5868 88.6058 78.2094C88.4726 77.8375 88.4004 77.4267 88.4004 76.9882C88.4004 76.5775 88.4726 76.1889 88.6114 75.8226C88.7501 75.4562 88.9444 75.1343 89.1886 74.8623C89.4329 74.5903 89.7271 74.3739 90.0657 74.2129C90.4098 74.0519 90.7817 73.9742 91.1869 73.9742C91.4422 73.9742 91.6809 73.9964 91.8918 74.0353C92.1028 74.0797 92.297 74.1352 92.4747 74.2073C92.6523 74.2795 92.8188 74.3683 92.9742 74.4682C93.1296 74.5681 93.274 74.6847 93.4127 74.8068L93.9456 74.1796C93.7624 74.0242 93.5792 73.8909 93.385 73.7688C93.1907 73.6467 92.9853 73.5413 92.7688 73.458C92.5468 73.3747 92.3137 73.3137 92.0584 73.2693C91.803 73.2249 91.5255 73.2082 91.2146 73.2082C90.6651 73.2082 90.1656 73.3137 89.716 73.519C89.2664 73.7244 88.8834 74.002 88.5614 74.3517C88.2395 74.7013 87.9897 75.1066 87.8121 75.5673C87.6344 76.028 87.5456 76.5109 87.5456 77.0104C87.5456 77.51 87.6289 78.0262 87.801 78.4869C87.973 78.9476 88.2173 79.3473 88.5448 79.6914C88.8667 80.0356 89.2608 80.302 89.716 80.4963C90.1711 80.6905 90.6929 80.7905 91.2701 80.7905C91.8918 80.7905 92.4525 80.6794 92.9465 80.463C93.446 80.2465 93.8679 79.9801 94.2065 79.6748L94.2176 79.6637ZM1.26556 86.3467C1.26556 86.1802 1.30442 86.0248 1.37658 85.8749C1.44874 85.7306 1.5542 85.6029 1.69297 85.4975C1.82618 85.392 1.9927 85.3087 2.18698 85.2477C2.38125 85.1866 2.59218 85.1533 2.83086 85.1533C3.20831 85.1533 3.5691 85.2144 3.91325 85.342C4.25739 85.4697 4.60153 85.6695 4.94568 85.9471L5.42859 85.3087C5.05114 85.0145 4.66259 84.787 4.26294 84.6426C3.86329 84.4928 3.39148 84.4206 2.85862 84.4206C2.50892 84.4206 2.18698 84.4706 1.89834 84.5705C1.60416 84.6704 1.34882 84.8092 1.13235 84.9923C0.91587 85.17 0.749348 85.3809 0.632784 85.6251C0.516219 85.8694 0.455162 86.1413 0.455162 86.43C0.455162 86.7186 0.505119 87.0017 0.599481 87.2237C0.699394 87.4513 0.849261 87.6456 1.04909 87.8121C1.24891 87.9786 1.50979 88.1229 1.82063 88.2395C2.13147 88.3561 2.49782 88.4615 2.91412 88.5559C3.29712 88.6392 3.61351 88.728 3.86329 88.8168C4.11307 88.9056 4.3018 89.0111 4.44611 89.1221C4.58488 89.2331 4.68479 89.3552 4.7403 89.494C4.79581 89.6327 4.82356 89.7881 4.82356 89.9602C4.82356 90.3377 4.67369 90.643 4.37951 90.8705C4.08532 91.0981 3.68567 91.2147 3.19166 91.2147C2.69764 91.2147 2.23139 91.1314 1.84284 90.9593C1.45429 90.7873 1.06574 90.5264 0.68274 90.1823L0.172077 90.7873C0.610582 91.1814 1.07129 91.4756 1.55975 91.6643C2.04266 91.853 2.58108 91.9474 3.1639 91.9474C3.5247 91.9474 3.86329 91.8974 4.16858 91.8031C4.47387 91.7031 4.73475 91.5644 4.95678 91.3812C5.17326 91.198 5.34533 90.9815 5.46744 90.7207C5.58956 90.4598 5.65617 90.1767 5.65617 89.8603C5.65617 89.2941 5.46189 88.8501 5.07334 88.5281C4.68479 88.2062 4.08532 87.9564 3.26937 87.7732C2.86416 87.69 2.53112 87.6012 2.27579 87.5068C2.01491 87.4124 1.81508 87.307 1.67076 87.1904C1.52645 87.0739 1.42098 86.9462 1.36548 86.8074C1.30997 86.6687 1.28222 86.5132 1.28222 86.3356L1.26556 86.3467ZM17.185 88.1784C17.185 87.6678 17.0962 87.1849 16.9185 86.7297C16.7409 86.2746 16.4856 85.8694 16.1581 85.5252C15.8306 85.1811 15.4365 84.9091 14.9813 84.7037C14.5262 84.5039 14.0155 84.3984 13.4605 84.3984C12.9054 84.3984 12.3947 84.5039 11.934 84.7093C11.4733 84.9146 11.0792 85.1922 10.7517 85.5419C10.4242 85.8916 10.1689 86.2912 9.98571 86.7519C9.80254 87.2071 9.71373 87.69 9.71373 88.2006C9.71373 88.7113 9.80254 89.1942 9.98016 89.6494C10.1578 90.1045 10.4131 90.5097 10.7406 90.8539C11.0681 91.198 11.4622 91.47 11.9174 91.6754C12.3725 91.8752 12.8832 91.9807 13.4382 91.9807C13.9933 91.9807 14.504 91.8808 14.9647 91.6698C15.4254 91.4645 15.8195 91.1869 16.147 90.8372C16.4745 90.4875 16.7298 90.0879 16.913 89.6272C17.0962 89.172 17.185 88.6891 17.185 88.1784ZM16.3246 88.1951C16.3246 88.6114 16.2524 89.0055 16.1081 89.3718C15.9638 89.7382 15.7695 90.0546 15.5142 90.3266C15.2644 90.5986 14.9591 90.815 14.6094 90.9705C14.2598 91.1259 13.8712 91.2036 13.4549 91.2036C13.0386 91.2036 12.65 91.1259 12.3004 90.9649C11.9507 90.8039 11.6454 90.5874 11.3845 90.3155C11.1236 90.0435 10.9238 89.7215 10.785 89.3552C10.6407 88.9833 10.5685 88.5892 10.5685 88.1729C10.5685 87.7566 10.6407 87.3625 10.785 86.9961C10.9293 86.6298 11.1236 86.3134 11.3734 86.0414C11.6232 85.7694 11.9285 85.553 12.2782 85.3975C12.6278 85.2421 13.0164 85.1644 13.4327 85.1644C13.849 85.1644 14.2375 85.2421 14.5872 85.4031C14.9369 85.5641 15.2422 85.7805 15.5031 86.0525C15.764 86.3245 15.9638 86.6465 16.1026 87.0128C16.2469 87.3847 16.3191 87.7788 16.3191 88.1951H16.3246ZM21.6422 91.8475H26.5879V91.0815H22.4637V84.5205H21.6366V91.8419L21.6422 91.8475ZM36.6069 84.5261H35.7798V88.7835C35.7798 89.5828 35.58 90.1878 35.1859 90.593C34.7862 90.9982 34.2534 91.198 33.5762 91.198C32.899 91.198 32.3217 90.9871 31.9276 90.5597C31.5335 90.1323 31.3393 89.5217 31.3393 88.728V84.5205H30.5122V88.7779C30.5122 89.2941 30.5844 89.7493 30.7342 90.1489C30.8785 90.5486 31.0895 90.8816 31.3559 91.1481C31.6223 91.4145 31.9443 91.6199 32.3162 91.7531C32.6881 91.8919 33.1044 91.9585 33.554 91.9585C34.0036 91.9585 34.431 91.8919 34.8029 91.7531C35.1748 91.6199 35.4967 91.4145 35.7632 91.1425C36.0296 90.8705 36.2405 90.5319 36.3848 90.1267C36.5292 89.7215 36.6069 89.2497 36.6069 88.7169V84.5205V84.5261ZM44.0393 85.2921H46.4982V84.5261H40.7532V85.2921H43.2122V91.853H44.0393V85.2921ZM50.8444 84.5261V91.8475H51.6715V84.5261H50.8444ZM63.6776 88.1784C63.6776 87.6678 63.5888 87.1849 63.4112 86.7297C63.2336 86.2746 62.9782 85.8694 62.6507 85.5252C62.3233 85.1811 61.9292 84.9091 61.474 84.7037C61.0188 84.5039 60.5082 84.3984 59.9531 84.3984C59.398 84.3984 58.8874 84.5039 58.4267 84.7093C57.966 84.9146 57.5719 85.1922 57.2444 85.5419C56.9169 85.8916 56.6615 86.2912 56.4784 86.7519C56.2952 87.2071 56.2064 87.69 56.2064 88.2006C56.2064 88.7113 56.2952 89.1942 56.4728 89.6494C56.6504 90.1045 56.9058 90.5097 57.2333 90.8539C57.5608 91.198 57.9549 91.47 58.41 91.6754C58.8652 91.8752 59.3758 91.9807 59.9309 91.9807C60.486 91.9807 60.9966 91.8808 61.4573 91.6698C61.9181 91.4645 62.3122 91.1869 62.6397 90.8372C62.9671 90.4875 63.2225 90.0879 63.4056 89.6272C63.5888 89.172 63.6776 88.6891 63.6776 88.1784ZM62.8173 88.1951C62.8173 88.6114 62.7451 89.0055 62.6008 89.3718C62.4565 89.7382 62.2622 90.0546 62.0124 90.3266C61.7626 90.5986 61.4573 90.815 61.1077 90.9705C60.758 91.1259 60.3694 91.2036 59.9531 91.2036C59.5368 91.2036 59.1483 91.1259 58.7986 90.9649C58.4489 90.8039 58.1436 90.5874 57.8827 90.3155C57.6218 90.0435 57.422 89.7215 57.2832 89.3552C57.1389 88.9833 57.0667 88.5892 57.0667 88.1729C57.0667 87.7566 57.1389 87.3625 57.2832 86.9961C57.4275 86.6298 57.6218 86.3134 57.8716 86.0414C58.1214 85.7694 58.4267 85.553 58.7764 85.3975C59.1261 85.2421 59.5146 85.1644 59.9309 85.1644C60.3472 85.1644 60.7358 85.2421 61.0855 85.4031C61.4351 85.5641 61.7404 85.7805 62.0013 86.0525C62.2622 86.3245 62.462 86.6465 62.6008 87.0128C62.7451 87.3847 62.8173 87.7788 62.8173 88.1951ZM73.5246 90.3932L68.9119 84.5261H68.1404V91.8475H68.9452V85.8416L73.6744 91.8475H74.335V84.5261H73.5301V90.3932H73.5246ZM79.758 86.3467C79.758 86.1802 79.7969 86.0248 79.869 85.8749C79.9412 85.7306 80.0466 85.6029 80.1854 85.4975C80.3242 85.392 80.4851 85.3087 80.6794 85.2477C80.8737 85.1866 81.0846 85.1533 81.3233 85.1533C81.7007 85.1533 82.0615 85.2144 82.4057 85.342C82.7498 85.4697 83.094 85.6695 83.4381 85.9471L83.921 85.3087C83.5436 85.0145 83.155 84.787 82.7554 84.6426C82.3557 84.4928 81.8839 84.4206 81.3511 84.4206C81.0014 84.4206 80.6794 84.4706 80.3908 84.5705C80.0966 84.6704 79.8413 84.8092 79.6248 84.9923C79.4083 85.17 79.2418 85.3809 79.1252 85.6251C79.0087 85.8694 78.9476 86.1413 78.9476 86.43C78.9476 86.7186 78.9976 87.0017 79.0919 87.2237C79.1918 87.4513 79.3417 87.6456 79.5415 87.8121C79.7414 87.9786 80.0022 88.1229 80.3131 88.2395C80.6239 88.3561 80.9903 88.4615 81.4066 88.5559C81.7896 88.6392 82.1059 88.728 82.3557 88.8168C82.6055 88.9056 82.7942 89.0111 82.9386 89.1221C83.0773 89.2331 83.1772 89.3552 83.2327 89.494C83.2882 89.6327 83.316 89.7881 83.316 89.9602C83.316 90.3377 83.1661 90.643 82.8719 90.8705C82.5778 91.0981 82.1781 91.2147 81.6841 91.2147C81.1901 91.2147 80.7238 91.1314 80.3353 90.9593C79.9467 90.7873 79.5582 90.5264 79.1752 90.1823L78.6645 90.7873C79.103 91.1814 79.5637 91.4756 80.0522 91.6643C80.5351 91.853 81.0735 91.9474 81.6563 91.9474C82.0171 91.9474 82.3557 91.8974 82.661 91.8031C82.9663 91.7031 83.2272 91.5644 83.4492 91.3812C83.6657 91.198 83.8378 90.9815 83.9599 90.7207C84.082 90.4598 84.1486 90.1767 84.1486 89.8603C84.1486 89.2941 83.9543 88.8501 83.5658 88.5281C83.1772 88.2062 82.5778 87.9564 81.7618 87.7732C81.3566 87.69 81.0236 87.6012 80.7682 87.5068C80.5129 87.4124 80.3075 87.307 80.1632 87.1904C80.0189 87.0739 79.9134 86.9462 79.8579 86.8074C79.8024 86.6687 79.7747 86.5132 79.7747 86.3356L79.758 86.3467ZM91.6643 91.8475H96.6099V91.0815H92.4913V84.5205H91.6643V91.8419V91.8475ZM100.856 91.8475H105.802V91.0815H101.683V84.5205H100.856V91.8419V91.8475ZM115.904 90.6874L115.36 90.1545C115.01 90.4875 114.655 90.7484 114.294 90.9316C113.934 91.1148 113.501 91.2091 112.996 91.2091C112.59 91.2091 112.218 91.1314 111.869 90.976C111.525 90.8206 111.225 90.6041 110.97 90.3321C110.714 90.0601 110.514 89.7382 110.376 89.3718C110.231 89 110.159 88.6059 110.159 88.1784C110.159 87.751 110.231 87.3569 110.376 86.9906C110.52 86.6243 110.72 86.3079 110.97 86.0359C111.225 85.7639 111.525 85.553 111.869 85.3975C112.213 85.2421 112.59 85.17 112.996 85.17C113.495 85.17 113.928 85.2643 114.289 85.4531C114.65 85.6418 114.983 85.8805 115.299 86.1746L115.865 85.5696C115.682 85.3975 115.493 85.2366 115.299 85.0923C115.105 84.9479 114.888 84.8258 114.661 84.7259C114.433 84.626 114.183 84.5483 113.911 84.4928C113.645 84.4373 113.34 84.4095 113.007 84.4095C112.468 84.4095 111.974 84.5094 111.519 84.7093C111.064 84.9091 110.675 85.1811 110.348 85.5252C110.02 85.8694 109.765 86.2746 109.576 86.7353C109.393 87.196 109.299 87.69 109.299 88.2118C109.299 88.7335 109.393 89.2386 109.576 89.6993C109.76 90.16 110.015 90.5597 110.348 90.8983C110.675 91.2369 111.064 91.5033 111.508 91.6976C111.952 91.8919 112.441 91.9918 112.973 91.9918C113.306 91.9918 113.612 91.9585 113.884 91.8974C114.156 91.8364 114.411 91.7475 114.65 91.6365C114.888 91.5255 115.11 91.3923 115.316 91.2313C115.521 91.0759 115.721 90.8983 115.904 90.704V90.6874Z" fill="white"/>
<path fill-rule="evenodd" clip-rule="evenodd" d="M0.460709 96.1936H0V127H127V0H0V57.7939H0.460709V0.460709H126.539V126.539H0.460709V96.1936Z" fill="white"/>
</svg>
